<svg id="Capa_1" data-name="Capa 1" xmlns="http://www.w3.org/2000/svg" viewBox="0 0 174 200.77"><defs><style>.cls-1{fill:#a4a4a4;}.cls-2{fill:#004e73;}.cls-3,.cls-4{fill:#585759;}.cls-4,.cls-5{stroke:#575756;}.cls-4{stroke-miterlimit:10;stroke-width:2px;}.cls-5{fill:none;stroke-linecap:round;stroke-linejoin:round;stroke-width:3px;}</style></defs><path class="cls-1" d="M187.89,202.37q.21-5.91.43-11.82l-11.06-1.71a29.6,29.6,0,0,0-1.87-5.54l8.14-8-7.76-8.92-8.79,6a30,30,0,0,0-8.17-4.73l.38-10.32-11.77-1.18c-.71,3.19-1.41,6.39-2.12,9.58a30.07,30.07,0,0,0-9.11,2.25l-6.93-9-8.92,5.62,5.79,10.4a30.28,30.28,0,0,0-5.32,7.74l-9.66-1.7q-1.45,5.36-2.92,10.71l9.64,3.24c0,.24,0,.48,0,.73a29.92,29.92,0,0,0,1.67,9.83l-9.38,7.31,6,9.25,10.06-5.66a30.63,30.63,0,0,0,5.63,4.64q-1.28,5.66-2.53,11.32l10.46,3.16,4.1-10a31.54,31.54,0,0,0,4.15.31,29.09,29.09,0,0,0,3.25-.18q1.91,4.59,3.79,9.18l11.2-3.81q-1.06-5-2.12-9.89a30.75,30.75,0,0,0,4.84-3.81l9.19,4.79,5.34-8.38-8-5.83a29.44,29.44,0,0,0,1.73-5.18ZM148.28,213a17.24,17.24,0,1,1,17.23-17.23A17.23,17.23,0,0,1,148.28,213Z" transform="translate(-61.63 -121.72)"/><circle class="cls-1" cx="86.65" cy="74.08" r="5.62"/><path class="cls-2" d="M235.34,174.12c.1-2.69.19-5.39.29-8.09l-7.57-1.17a19.66,19.66,0,0,0-1.28-3.79l5.57-5.5L227,149.46l-6,4.1a20.6,20.6,0,0,0-5.59-3.23l.26-7.06-8.06-.81L206.2,149a20.27,20.27,0,0,0-6.24,1.54l-4.74-6.17-6.1,3.85,4,7.11a21,21,0,0,0-3.64,5.29l-6.61-1.16-2,7.34,6.6,2.21c0,.16,0,.33,0,.5a20.48,20.48,0,0,0,1.15,6.72l-6.42,5,4.07,6.32,6.89-3.87a20.62,20.62,0,0,0,3.85,3.18q-.87,3.87-1.73,7.74l7.16,2.17c.93-2.3,1.87-4.59,2.8-6.88a20.41,20.41,0,0,0,2.84.21,20.69,20.69,0,0,0,2.23-.12c.86,2.09,1.72,4.19,2.59,6.28l7.66-2.61c-.48-2.25-1-4.51-1.45-6.77a20.27,20.27,0,0,0,3.31-2.6l6.29,3.27q1.83-2.87,3.65-5.73l-5.44-4a20.15,20.15,0,0,0,1.18-3.54Zm-27.11,7.3A11.8,11.8,0,1,1,220,169.63,11.79,11.79,0,0,1,208.23,181.42Z" transform="translate(-61.63 -121.72)"/><path class="cls-3" d="M217.07,214a7.84,7.84,0,0,0-5.34-1.41c-4,.54-8,1-12,1.59q-37.25,5.18-74.55,9.93a18.13,18.13,0,0,0-5.21,1.2c-4.68,2.1-4.22,7.2-2.57,11.16,4.6,11.09,10,21.89,13.77,33.27,1.59,4.74,3.89,11,9.43,12.06a22,22,0,0,0,7-.2l50.81-6.91c3.52-.48,7.28-1.06,9.92-3.44a10.58,10.58,0,0,0,2.21-2.91,27,27,0,0,0,2.23-7.64l3.78-20.61,1.89-10.3c.54-3,1.57-6.21,1.68-9.2A8.21,8.21,0,0,0,217.07,214Zm-1.71,8.72c-.18.89-.25,1.78-.42,2.67s-.38,2-.58,2.95-.4,2-.61,2.94-.49,1.94-.64,2.92c-.3,1.92-.71,3.83-1.07,5.74-.07.34-.13.68-.2,1q-1.72,9-3.47,18a23,23,0,0,1-2,6.68,9.26,9.26,0,0,1-2,2.55c-2.39,2.09-5.76,2.61-8.93,3l-45.68,6.21a20.15,20.15,0,0,1-6.29.2c-5-.9-7-6.36-8.43-10.5-3.39-9.94-8.17-19.35-12.27-29-1.47-3.46-3.53-7.77.69-9.62,1.47-.65,4.75-1,6.35-1.21q33.54-4.28,67-8.93c3.59-.5,7.18-.95,10.77-1.43.57-.06,4.09-.72,6.1.72a4.39,4.39,0,0,1,1.77,3.44A6.28,6.28,0,0,1,215.36,222.7Z" transform="translate(-61.63 -121.72)"/><line class="cls-4" x1="72.37" y1="102.87" x2="89.7" y2="156.8"/><line class="cls-4" x1="94.31" y1="101.76" x2="108.84" y2="154.24"/><line class="cls-4" x1="114.8" y1="98.15" x2="128.71" y2="152.39"/><line class="cls-4" x1="135.02" y1="94.99" x2="147.38" y2="140.46"/><line class="cls-4" x1="58.64" y1="117.73" x2="154.93" y2="104.93"/><line class="cls-4" x1="68.01" y1="131.9" x2="152.95" y2="119.31"/><line class="cls-4" x1="70.41" y1="146.1" x2="149.92" y2="133.58"/><path class="cls-4" d="M195.92,292a12.32,12.32,0,1,0,12.31,12.32A12.33,12.33,0,0,0,195.92,292Zm0,20.9a8.58,8.58,0,1,1,8.59-8.58A8.58,8.58,0,0,1,195.93,312.91Z" transform="translate(-61.63 -121.72)"/><path class="cls-4" d="M156,296.86a12.32,12.32,0,1,0,12.31,12.32A12.33,12.33,0,0,0,156,296.86Zm0,20.9a8.59,8.59,0,1,1,8.58-8.58A8.58,8.58,0,0,1,156,317.76Z" transform="translate(-61.63 -121.72)"/><path class="cls-4" d="M71.49,189.12A8.87,8.87,0,1,0,80.36,198,8.86,8.86,0,0,0,71.49,189.12Zm0,15A6.18,6.18,0,1,1,77.67,198,6.17,6.17,0,0,1,71.49,204.16Z" transform="translate(-61.63 -121.72)"/><rect class="cls-2" x="111.19" y="203.51" width="6.25" height="92.44" rx="2.69" transform="translate(-149.98 -57.36) rotate(-22.96)"/><rect class="cls-2" x="151.3" y="260.25" width="6.25" height="52.33" rx="2.24" transform="translate(355.44 -27.4) rotate(82.15)"/><rect class="cls-2" x="85.63" y="193.96" width="6.25" height="22.84" rx="1.73" transform="translate(-196.47 75.56) rotate(-64.56)"/><path class="cls-5" d="M89,188.71c1.4-5.59-.45-28.92,29.68-46.25,36.32-20.89,65.81-3.52,69.69-1.8" transform="translate(-61.63 -121.72)"/><path class="cls-5" d="M78.84,182.57c2.67-33.83,36.46-60.06,69.43-59.33" transform="translate(-61.63 -121.72)"/></svg>